<?xml version="1.0" encoding="UTF-8" standalone="no"?>
<!-- Created with Inkscape (http://www.inkscape.org/) -->

<svg
   xmlns:dc="http://purl.org/dc/elements/1.1/"
   xmlns:cc="http://creativecommons.org/ns#"
   xmlns:rdf="http://www.w3.org/1999/02/22-rdf-syntax-ns#"
   xmlns:svg="http://www.w3.org/2000/svg"
   xmlns="http://www.w3.org/2000/svg"
   xmlns:xlink="http://www.w3.org/1999/xlink"
   xmlns:sodipodi="http://sodipodi.sourceforge.net/DTD/sodipodi-0.dtd"
   xmlns:inkscape="http://www.inkscape.org/namespaces/inkscape"
   width="67.73333mm"
   height="67.73333mm"
   viewBox="0 0 67.733329 67.733331"
   version="1.1"
   id="svg8"
   inkscape:version="0.92.3 (2405546, 2018-03-11)"
   sodipodi:docname="icon.svg"
   inkscape:export-filename="C:\lw-loading-bar\assets\icon-256x256.png"
   inkscape:export-xdpi="24.575998"
   inkscape:export-ydpi="24.575998">
  <defs
     id="defs2">
    <linearGradient
       id="linearGradient4558"
       inkscape:collect="always">
      <stop
         id="stop4554"
         offset="0"
         style="stop-color:#ffbeff;stop-opacity:1" />
      <stop
         id="stop4556"
         offset="1"
         style="stop-color:#ff00ff;stop-opacity:1" />
    </linearGradient>
    <linearGradient
       inkscape:collect="always"
       id="linearGradient4544">
      <stop
         style="stop-color:#0045ff;stop-opacity:1"
         offset="0"
         id="stop4540" />
      <stop
         style="stop-color:#00c8ff;stop-opacity:1"
         offset="1"
         id="stop4542" />
    </linearGradient>
    <linearGradient
       inkscape:collect="always"
       xlink:href="#linearGradient4544"
       id="linearGradient4546"
       x1="-269.875"
       y1="162.81845"
       x2="420.30951"
       y2="162.81845"
       gradientUnits="userSpaceOnUse"
       gradientTransform="matrix(0.098138,0,0,0.25382435,-243.39,221.05011)" />
    <linearGradient
       inkscape:collect="always"
       xlink:href="#linearGradient4558"
       id="linearGradient4552"
       gradientUnits="userSpaceOnUse"
       x1="-269.875"
       y1="162.81845"
       x2="420.30951"
       y2="162.81845"
       gradientTransform="matrix(0.098138,0,0,0.0086286,-243.39,228.25711)" />
  </defs>
  <sodipodi:namedview
     id="base"
     pagecolor="#ffffff"
     bordercolor="#666666"
     borderopacity="1.0"
     inkscape:pageopacity="0.0"
     inkscape:pageshadow="2"
     inkscape:zoom="2.8"
     inkscape:cx="203.09645"
     inkscape:cy="127.0993"
     inkscape:document-units="mm"
     inkscape:current-layer="layer1"
     showgrid="false"
     fit-margin-top="0"
     fit-margin-left="0"
     fit-margin-right="0"
     fit-margin-bottom="0"
     inkscape:window-width="1920"
     inkscape:window-height="1027"
     inkscape:window-x="1912"
     inkscape:window-y="-8"
     inkscape:window-maximized="1" />
  <metadata
     id="metadata5">
    <rdf:RDF>
      <cc:Work
         rdf:about="">
        <dc:format>image/svg+xml</dc:format>
        <dc:type
           rdf:resource="http://purl.org/dc/dcmitype/StillImage" />
        <dc:title></dc:title>
      </cc:Work>
    </rdf:RDF>
  </metadata>
  <g
     inkscape:label="Layer 1"
     inkscape:groupmode="layer"
     id="layer1"
     transform="translate(269.875,-228.51073)">
    <rect
       style="fill:url(#linearGradient4546);fill-opacity:1;stroke:none;stroke-width:0.03420266"
       id="rect3733"
       width="67.73333"
       height="67.73333"
       x="-269.875"
       y="228.51073" />
    <rect
       y="228.51073"
       x="-269.875"
       height="2.302551"
       width="67.73333"
       id="rect4548"
       style="fill:url(#linearGradient4552);fill-opacity:1;stroke:none;stroke-width:0.00630614" />
    <g
       id="g884"
       transform="matrix(0.25599999,0,0,0.25599999,-201.41132,220.36116)">
      <path
         style="opacity:0.23800001;fill:#ffffff;stroke-width:0.23800752"
         inkscape:connector-curvature="0"
         d="m -66.393476,79.893403 a 12.795283,12.795283 0 0 0 -0.830246,2.35058 c -0.421653,1.743294 -0.403854,3.563968 -0.259239,5.352049 l -1.723971,-3.68254 c 0.671193,1.445235 -2.218181,4.665008 -2.914224,5.756538 -1.616396,2.534141 -2.70329,4.238295 -2.040283,7.370089 a 104.85897,104.85897 0 0 0 3.148267,11.573651 27.132856,27.132856 0 0 1 -5.246518,-10.250431 25.300197,25.300197 0 0 0 0.616548,16.834381 20.409144,20.409144 0 0 1 -3.145605,-5.56724 l -3.765661,10.32172 c -1.01123,2.78437 -2.037318,5.86967 -0.989599,8.64694 0.973077,2.57832 2.359691,5.07419 3.684527,7.4853 1.599108,2.91179 2.4639,6.30963 4.030275,9.13746 -2.75484,-4.95534 -6.41798,-9.92029 -10.638857,-13.70544 -2.793198,7.49171 0.682454,17.0676 2.003746,24.56166 a 24.588555,24.588555 0 0 0 -3.771383,-9.38016 c -0.90887,4.16366 -2.694505,8.39111 -3.20529,12.55676 -0.510803,4.16565 0.370449,8.77418 1.546341,12.71105 a 18.326578,18.326578 0 0 1 -2.714465,-8.19309 l -0.868527,3.34923 a 10.607994,10.607994 0 0 0 -0.408727,2.2285 c -0.03835,1.01581 0.214486,2.0187 0.467359,3.00442 l 1.248631,4.90484 a 61.29883,61.29883 0 0 1 -2.295539,-6.31829 c -1.326657,7.35726 -3.991142,15.24612 1.991194,21.55016 l -5.665246,-5.97161 c -1.045574,5.12165 -2.579182,9.6477 -2.731562,14.22116 -0.1487,4.66521 1.055738,9.35668 1.670468,14.11881 l -1.712188,-0.65057 c -1.2561,5.17843 -0.88069,10.04474 2.079682,15.53478 21.231393,-32.66592 33.653013,-67.79211 38.845674,-105.7113 0.01516,0.8034 0.141221,1.61907 0.02971,2.40357 -2.615234,18.19152 -4.829947,36.42324 -11.192929,53.89013 -11.594208,31.82699 -28.233948,60.52888 -51.290077,85.44035 -3.3283,3.59591 -6.51185,7.34152 -9.75857,11.02614 l 0.6411,0.96853 c 1.28607,-0.85127 2.72872,-1.54361 3.82863,-2.59422 11.3436,-10.86515 21.22519,-22.96883 30.000051,-35.97263 1.87332,-2.77556 3.695235,-4.17561 6.879286,-4.26811 3.543194,-0.10186 6.901762,-0.67236 10.11774,-2.2388 l -3.040677,-0.14797 a 47.080262,47.080262 0 0 0 13.564114,-9.6234 1.8612187,1.8612187 0 0 0 -1.971656,-0.0336 c 0.143299,-0.21476 3.692209,-4.05944 3.535447,-4.1669 l -3.210912,-2.17312 c 4.731263,-2.46381 7.26486,-6.49274 8.715429,-11.19198 l -8.073405,1.25667 c 13.777817,-4.55297 16.739756,-16.9686 21.532823,-27.97613 l -0.51124,-0.72908 -12.776414,4.56091 c 1.660858,-1.40187 3.524928,-2.37605 5.348995,-3.42356 2.909369,-1.67175 6.319534,-2.87579 8.588058,-5.18797 3.287192,-3.3518 5.068613,-7.68489 6.115248,-12.19663 0.51223,-2.20577 0.874099,-4.44038 1.248462,-6.66902 0.374349,-2.22867 1.073021,-4.5064 1.239508,-6.75157 -2.004912,1.04166 -3.77872,2.86369 -5.537954,4.26786 l -2.931336,2.3371 c -0.746854,0.59658 -2.48564,1.49687 -2.931325,2.33711 a 24.131581,24.131581 0 0 1 3.616365,-5.08819 c 1.254732,-1.3557 2.253138,-2.85286 3.465107,-4.25161 a 57.785842,57.785842 0 0 0 3.692466,-4.93871 3.0417359,3.0417359 0 0 0 0.682657,-2.03027 q 0.212147,-3.28008 0.355591,-6.55182 c 0.02275,-0.50027 -0.076,-5.78089 0.07933,-5.84374 -0.623976,0.24746 -1.182356,0.24928 -1.821869,0.38679 -0.837059,0.17968 -1.575261,0.66879 -2.332351,1.04718 a 3.2178615,3.2178615 0 0 0 1.371233,-2.67162 11.295836,11.295836 0 0 0 -3.27906,1.083 l 5.106699,-5.22118 a 2.7489866,2.7489866 0 0 0 0.587387,-0.75985 2.6180826,2.6180826 0 0 0 0.136691,-1.22077 24.752781,24.752781 0 0 0 -0.335619,-2.91752 41.972623,41.972623 0 0 0 -4.399298,2.28405 c 1.137824,-3.13642 4.415794,-4.6868 3.75004,-8.38764 -0.61192,-3.40824 -1.988364,-7.18666 -2.933701,-10.57683 a 19.457113,19.457113 0 0 0 -0.748403,-1.859379 l -6.658719,9.659359 c 1.446615,-4.09721 3.900238,-7.69931 5.032253,-11.676748 1.265557,-4.439734 -1.474085,-8.203531 -4.161982,-12.441099 l -0.54834,6.950577 c -0.804033,-2.202161 -0.993555,-4.385808 -1.307894,-6.555329 -0.878213,-6.134723 -5.020046,-11.464956 -7.508094,-17.056439 -1.161773,4.199818 -4.605074,7.44086 -6.404239,11.354714 z"
         id="path3715" />
      <g
         aria-label="LW"
         style="font-style:normal;font-variant:normal;font-weight:normal;font-stretch:normal;font-size:103.24807739px;line-height:1.25;font-family:'Varela Round';-inkscape-font-specification:'Varela Round, Normal';font-variant-ligatures:normal;font-variant-caps:normal;font-variant-numeric:normal;font-feature-settings:normal;text-align:start;letter-spacing:0px;word-spacing:0px;writing-mode:lr-tb;text-anchor:start;fill:#ffffff;fill-opacity:1;stroke:none;stroke-width:2.58116937"
         id="text873">
        <path
           d="m -223.84624,141.89302 q -2.68445,0 -4.64617,-1.85846 -1.85846,-1.96172 -1.85846,-4.64617 V 74.059034 q 0,-1.961714 1.34222,-3.303939 1.34223,-1.445473 3.30394,-1.445473 1.96171,0 3.30394,1.445473 1.44547,1.342225 1.44547,3.303939 v 58.438416 h 33.76212 q 1.96172,0 3.30394,1.44547 1.44548,1.34222 1.44548,3.30394 0,1.96171 -1.44548,3.30394 -1.34222,1.34222 -3.30394,1.34222 z"
           style="font-style:normal;font-variant:normal;font-weight:normal;font-stretch:normal;font-size:103.24807739px;font-family:'Varela Round';-inkscape-font-specification:'Varela Round, Normal';font-variant-ligatures:normal;font-variant-caps:normal;font-variant-numeric:normal;font-feature-settings:normal;text-align:start;writing-mode:lr-tb;text-anchor:start;fill:#ffffff;stroke-width:2.58116937"
           id="path890"
           inkscape:connector-curvature="0" />
        <path
           d="m -155.38148,142.40926 q -2.06496,0 -3.71693,-1.13573 -1.54872,-1.23897 -2.3747,-3.51043 l -20.23663,-62.155345 q -0.30974,-1.135729 -0.30974,-1.755217 -0.10325,-1.961714 1.13573,-3.200691 1.34222,-1.342225 3.40718,-1.342225 1.65197,0 2.89095,1.032481 1.23898,1.032481 1.75522,2.68445 l 17.34567,56.992937 17.44893,-56.786441 q 0.51624,-1.755217 1.96171,-2.787698 1.54872,-1.135729 3.40719,-1.135729 1.85847,0 3.30394,1.135729 1.54872,1.032481 2.06496,2.787698 l 17.44893,56.786441 17.345672,-56.992937 q 0.516241,-1.651969 1.755217,-2.68445 1.238977,-1.032481 2.890947,-1.032481 2.064961,0 3.303938,1.342225 1.342225,1.238977 1.238977,3.200691 0,0.619488 -0.309744,1.755217 L -103.86069,137.7631 q -0.82598,2.27146 -2.47795,3.51043 -1.54872,1.13573 -3.61368,1.13573 -2.06496,0 -3.82018,-1.23898 -1.65197,-1.34222 -2.27146,-3.40718 L -132.6669,85.106578 -149.28984,137.7631 q -0.61949,2.06496 -2.37471,3.40718 -1.65197,1.23898 -3.71693,1.23898 z"
           style="font-style:normal;font-variant:normal;font-weight:normal;font-stretch:normal;font-size:103.24807739px;font-family:'Varela Round';-inkscape-font-specification:'Varela Round, Normal';font-variant-ligatures:normal;font-variant-caps:normal;font-variant-numeric:normal;font-feature-settings:normal;text-align:start;writing-mode:lr-tb;text-anchor:start;fill:#ffffff;stroke-width:2.58116937"
           id="path892"
           inkscape:connector-curvature="0" />
      </g>
      <g
         aria-label="LB"
         style="font-style:normal;font-variant:normal;font-weight:normal;font-stretch:normal;font-size:103.24807739px;line-height:1.25;font-family:'Varela Round';-inkscape-font-specification:'Varela Round, Normal';font-variant-ligatures:normal;font-variant-caps:normal;font-variant-numeric:normal;font-feature-settings:normal;text-align:start;letter-spacing:0px;word-spacing:0px;writing-mode:lr-tb;text-anchor:start;fill:#ffffff;fill-opacity:1;stroke:none;stroke-width:2.58116937"
         id="text877">
        <path
           d="m -223.84624,225.42577 q -2.68445,0 -4.64617,-1.85847 -1.85846,-1.96171 -1.85846,-4.64616 v -61.32936 q 0,-1.96171 1.34222,-3.30394 1.34223,-1.44547 3.30394,-1.44547 1.96171,0 3.30394,1.44547 1.44547,1.34223 1.44547,3.30394 v 58.43841 h 33.76212 q 1.96172,0 3.30394,1.44547 1.44548,1.34223 1.44548,3.30394 0,1.96172 -1.44548,3.30394 -1.34222,1.34223 -3.30394,1.34223 z"
           style="font-style:normal;font-variant:normal;font-weight:normal;font-stretch:normal;font-size:103.24807739px;font-family:'Varela Round';-inkscape-font-specification:'Varela Round, Normal';font-variant-ligatures:normal;font-variant-caps:normal;font-variant-numeric:normal;font-feature-settings:normal;text-align:start;writing-mode:lr-tb;text-anchor:start;fill:#ffffff;stroke-width:2.58116937"
           id="path895"
           inkscape:connector-curvature="0" />
        <path
           d="m -166.21607,225.42577 q -1.96171,0 -3.30394,-1.34223 -1.34222,-1.34222 -1.34222,-3.30394 v -62.67158 q 0,-1.96171 1.34222,-3.30394 1.34223,-1.44547 3.30394,-1.44547 h 24.36655 q 11.04754,0 17.03593,5.05915 6.09164,5.05916 6.09164,13.62875 0,5.98839 -2.89095,10.01506 -2.7877,3.92343 -7.22737,5.88514 6.19489,1.96172 10.11832,6.29814 4.02667,4.33642 4.02667,10.94429 0,9.49883 -6.40138,14.86773 -6.40138,5.3689 -20.13337,5.3689 z m 21.88859,-40.88624 q 9.18908,0 12.90601,-3.09744 3.71693,-3.09745 3.71693,-8.67284 0,-4.85266 -4.02667,-7.74361 -3.92343,-2.89095 -10.84105,-2.89095 h -18.8944 v 22.40484 z m 2.16821,32.11015 q 10.01507,0 14.14499,-3.09744 4.23317,-3.09745 4.23317,-8.77609 0,-11.77028 -18.27491,-11.77028 h -19.41064 v 23.64381 z"
           style="font-style:normal;font-variant:normal;font-weight:normal;font-stretch:normal;font-size:103.24807739px;font-family:'Varela Round';-inkscape-font-specification:'Varela Round, Normal';font-variant-ligatures:normal;font-variant-caps:normal;font-variant-numeric:normal;font-feature-settings:normal;text-align:start;writing-mode:lr-tb;text-anchor:start;fill:#ffffff;stroke-width:2.58116937"
           id="path897"
           inkscape:connector-curvature="0" />
      </g>
    </g>
    <g
       transform="matrix(0.05771682,0,0,0.05771682,-249.95691,273.80624)"
       id="layer1-9"
       style="fill:#008eff;fill-opacity:1">
      <g
         id="layer3"
         style="display:inline;fill:#008eff;fill-opacity:1"
         transform="matrix(5.1907994,0,0,5.1907994,1147.4847,140.46288)" />
      <path
         id="path1460"
         d="m 582.01521,136.13241 a 4.8473814,4.8473814 0 0 0 -4.84733,4.84735 4.8473814,4.8473814 0 0 0 4.84733,4.84736 4.8473814,4.8473814 0 0 0 4.84737,-4.84736 4.8473814,4.8473814 0 0 0 -4.84737,-4.84735 z m 60.15157,7.49129 a 9.4744264,9.4744264 0 0 0 -9.47425,9.47463 9.4744264,9.4744264 0 0 0 9.47425,9.47425 9.4744264,9.4744264 0 0 0 9.47463,-9.47425 9.4744264,9.4744264 0 0 0 -9.47463,-9.47463 z m 57.30664,25.46019 c -9.80931,0 -17.7613,7.952 -17.7613,17.76129 0.003,0.37593 0.0146,0.75174 0.0396,1.12683 -1.33804,13.44702 -9.0765,16.38908 -21.964,10.55042 -4.43791,-2.13457 -9.29696,-3.24978 -14.2215,-3.26401 -18.24184,0 -33.02975,14.78791 -33.02975,33.02976 0.0136,8.20665 3.08174,16.11434 8.60682,22.18252 10.75608,10.54177 12.64322,18.94614 -3.75052,22.74924 -10.32669,3.41249 -17.30617,13.05625 -17.32035,23.93218 0,13.93951 11.30021,25.23972 25.23971,25.23972 1.10365,-0.0101 2.20545,-0.0926 3.2983,-0.24696 16.44751,30.46097 48.26241,49.4617 82.88016,49.4983 25.01083,-4e-5 48.99741,-9.93544 66.68273,-27.62075 17.68532,-17.68531 27.6207,-41.67191 27.62073,-66.68271 -0.0295,-24.0616 -9.25542,-47.20188 -25.78891,-64.68342 -16.53348,-17.48155 -39.12385,-27.982 -63.14644,-29.3517 -1.6819,-8.26787 -8.94819,-14.21148 -17.38541,-14.22071 z m -33.73086,3.18379 a 11.016776,11.016776 0 0 0 -11.01668,11.01667 11.016776,11.016776 0 0 0 11.01668,11.01667 11.016776,11.016776 0 0 0 11.01704,-11.01667 11.016776,11.016776 0 0 0 -11.01704,-11.01667 z m -43.40611,1.32197 a 8.1524148,8.1524148 0 0 0 -8.15228,8.15226 8.1524148,8.1524148 0 0 0 8.15228,8.15229 8.1524148,8.1524148 0 0 0 8.15268,-8.15229 8.1524148,8.1524148 0 0 0 -8.15268,-8.15226 z m -38.77881,13.6606 a 5.0677173,5.0677173 0 0 0 -5.0678,5.06781 5.0677173,5.0677173 0 0 0 5.0678,5.06782 5.0677173,5.0677173 0 0 0 5.06782,-5.06782 5.0677173,5.0677173 0 0 0 -5.06782,-5.06781 z m 128.88891,20.70243 c 14.0885,0 26.94931,2.1326 38.58211,6.39796 3.61908,1.29251 5.42849,3.87778 5.42849,7.75537 0,1.93878 -0.71075,3.8129 -2.13252,5.62245 -1.29252,1.68029 -2.77909,2.52046 -4.45943,2.52046 -1.55102,0 -3.74799,-0.51697 -6.59152,-1.55098 -8.40147,-2.97282 -18.03093,-4.45942 -28.88819,-4.45942 -9.95253,0 -18.16015,1.87412 -24.62275,5.62247 -6.59188,3.87759 -9.88789,9.37091 -9.88789,16.47983 0,7.3674 4.26561,12.92545 12.79629,16.67378 3.87756,1.80956 8.27182,3.29576 13.18347,4.45903 4.91158,1.16327 9.9527,2.39137 15.12282,3.68391 5.17016,1.29252 10.21084,2.84345 15.12242,4.65298 4.91165,1.68029 9.30623,3.94234 13.18383,6.78591 8.53071,6.20413 12.79631,15.12252 12.79631,26.75527 0,11.11575 -4.45932,20.16356 -13.37782,27.14322 -9.17694,7.1089 -21.26235,10.66339 -36.25562,10.66339 -16.41513,0 -31.79602,-3.10223 -46.14311,-9.30637 -1.4218,-0.64627 -2.71423,-1.68021 -3.8775,-3.102 -1.03406,-1.42178 -1.55139,-3.10214 -1.55139,-5.04093 0,-2.06803 0.71107,-3.87743 2.13291,-5.42848 1.42174,-1.68029 3.0374,-2.52047 4.84697,-2.52047 1.93874,0 4.26548,0.64603 6.97986,1.93856 2.84355,1.16328 7.43163,2.58514 13.76501,4.26543 6.3334,1.68029 13.70085,2.52046 22.10227,2.52046 22.61925,0 33.92914,-7.43217 33.92914,-22.29626 0,-6.20413 -4.32997,-11.18011 -12.98989,-14.92843 -3.74837,-1.55104 -8.14306,-2.90819 -13.18385,-4.07147 -4.9117,-1.29252 -9.95272,-2.64967 -15.12281,-4.07147 -5.04087,-1.42177 -10.08155,-3.0374 -15.12242,-4.84695 -4.91162,-1.80955 -9.30629,-4.13631 -13.18386,-6.97987 -8.53074,-6.46266 -12.7959,-14.99348 -12.7959,-25.59222 0,-11.37427 4.26516,-20.68017 12.7959,-27.91835 9.30618,-7.88441 21.77902,-11.82681 37.41867,-11.82681 z m -121.17716,17.63585 a 6.610066,6.610066 0 0 0 -6.61023,6.61025 6.610066,6.610066 0 0 0 6.61023,6.61022 6.610066,6.610066 0 0 0 6.60986,-6.61022 6.610066,6.610066 0 0 0 -6.60986,-6.61025 z m -47.15192,14.54245 a 4.8473814,4.8473814 0 0 0 -4.84736,4.84735 4.8473814,4.8473814 0 0 0 4.84736,4.84735 4.8473814,4.8473814 0 0 0 4.84735,-4.84735 4.8473814,4.8473814 0 0 0 -4.84735,-4.84735 z m 66.98186,11.4572 a 9.6947636,9.6947636 0 0 0 -9.69471,9.69471 9.6947636,9.6947636 0 0 0 9.69471,9.69508 9.6947636,9.6947636 0 0 0 9.69509,-9.69508 9.6947636,9.6947636 0 0 0 -9.69509,-9.69471 z m -32.38902,26.88108 a 7.2710728,7.2710728 0 0 0 -7.27124,7.27122 7.2710728,7.2710728 0 0 0 7.27124,7.27084 7.2710728,7.2710728 0 0 0 7.2708,-7.27084 7.2710728,7.2710728 0 0 0 -7.2708,-7.27122 z"
         style="opacity:0.98000004;fill:#008eff;fill-opacity:1;stroke:none;stroke-width:5.24974489;stroke-linecap:butt;stroke-linejoin:round;stroke-miterlimit:4;stroke-dasharray:none;stroke-opacity:1;paint-order:normal"
         inkscape:connector-curvature="0" />
    </g>
  </g>
</svg>
